[Header]
FileType HTR
DataType HTRS
FileVersion 1
NumSegments 22
NumFrames 7
DataFrameRate 24
EulerRotationOrder ZYX
CalibrationUnits mm
RotationUnits Degrees
GlobalAxisofGravity Y
BoneLengthAxis Y
ScaleFactor 1.0
[SegmentNames&Hierarchy]
reference	GLOBAL
Hips	reference
Spine	Hips
Spine1	Spine
Neck	Spine1
Head	Neck
LeftShoulder	Spine1
LeftArm	LeftShoulder
LeftForeArm	LeftArm
LeftHand	LeftForeArm
RightShoulder	Spine1
RightArm	RightShoulder
RightForeArm	RightArm
RightHand	RightForeArm
LeftUpLeg	Hips
LeftLeg	LeftUpLeg
LeftFoot	LeftLeg
LeftToeBase	LeftFoot
RightUpLeg	Hips
RightLeg	RightUpLeg
RightFoot	RightLeg
RightToeBase	RightFoot
[BasePosition]
reference	0	0	0	0	0	0	1
Hips	0	0	0	0	0	0	1
Spine	0	0	0	-0	-90	0	1
Spine1	0	0	0	0	0	0	1
Neck	0	0	0	82.64767223	-82.64767223	-90	1
Head	0	0	0	-0	-90	0	1
LeftShoulder	0	0	0	0	0	0	1
LeftArm	0	0	0	0	0	0	1
LeftForeArm	0	0	0	0	0	0	1
LeftHand	0	0	0	0	0	0	1
RightShoulder	0	0	0	0	-0	180	1
RightArm	0	0	0	0	-0	180	1
RightForeArm	0	0	0	0	-0	180	1
RightHand	0	0	0	0	-0	180	1
LeftUpLeg	0	0	0	-0	90	0	1
LeftLeg	0	0	0	-0	90	0	1
LeftFoot	0	0	0	-23.42853957	23.42853957	-90	1
LeftToeBase	0	0	0	0	-0	-90	1
RightUpLeg	0	0	0	-0	90	0	1
RightLeg	0	0	0	-0	90	0	1
RightFoot	0	0	0	-23.42853957	23.42853957	-90	1
RightToeBase	0	0	0	0	-0	-90	1
[reference]
20	0	0	0	0	-0	0	1.0
21	0	0	0	0	-0	0	1.0
22	0	0	0	0	-0	0	1.0
23	0	0	0	0	-0	0	1.0
24	0	0	0	0	-0	0	1.0
25	0	0	0	0	-0	0	1.0
26	0	0	0	0	-0	0	1.0
[Hips]
20	1.926440477	0.863427639	9.244749069	9.524909973	45.62955093	-47.49689102	1.0
21	1.757069945	0.8461225033	9.242340088	10.32233047	45.76913452	-46.29084778	1.0
22	1.418524384	0.8543765545	9.151766777	6.081216812	45.05503845	-46.30525208	1.0
23	1.026794434	0.9514793754	9.065073967	2.501789331	47.33782959	-44.38983154	1.0
24	0.8857797384	1.029812455	9.003889084	5.61204052	46.19556427	-40.77651978	1.0
25	0.6806000471	1.162320018	8.953649521	4.406991482	44.92636108	-43.14028549	1.0
26	0.5932829976	1.268492937	8.932389259	4.544718266	42.61232376	-44.53971863	1.0
[Spine]
20	0	0	0.7457100153	286.1113892	74.16687012	290.8001709	1.0
21	0	0	0.7457100153	285.7498779	76.05924225	293.6595764	1.0
22	0	0	0.7457100153	283.1834106	80.70839691	290.1193542	1.0
23	0	0	0.7457100153	284.8684998	80.08568573	289.8739014	1.0
24	0	0	0.7457100153	281.390686	78.52833557	288.2837219	1.0
25	0	0	0.7457100153	279.2136841	78.49388123	286.9199829	1.0
26	0	0	0.7457100153	275.3288574	78.3338623	283.2402954	1.0
[Spine1]
20	0	0	2.140589952	14.78425407	-12.98815346	-6.801833153	1.0
21	0	0	2.140589952	14.93715763	-14.08096886	-6.337143421	1.0
22	0	0	2.140589952	9.978507042	-15.38392735	-4.419182777	1.0
23	0	0	2.140589952	8.750451088	-16.3249054	-4.522688866	1.0
24	0	0	2.140589952	9.064620018	-14.33758163	-4.937505245	1.0
25	0	0	2.140589952	10.2356329	-13.68130684	-5.067272663	1.0
26	0	0	2.140589952	10.62074852	-13.06749249	-5.155552864	1.0
[Neck]
20	0	0	2.32246995	2.5773139	48.69052124	-9.717802048	1.0
21	0	0	2.32246995	-0.2952362299	47.0397377	-12.97156239	1.0
22	0	0	2.32246995	-3.791004658	47.64292526	-19.86919403	1.0
23	0	0	2.32246995	-4.673856735	51.23974609	-23.48789024	1.0
24	0	0	2.32246995	-5.334249496	52.28232574	-23.92624283	1.0
25	0	0	2.32246995	-7.481831074	55.62654114	-23.01799965	1.0
26	0	0	2.32246995	-8.654343605	57.19493866	-21.78840256	1.0
[Head]
20	0	-0.1818799973	1.409579992	32.22856903	99.79677582	47.29953003	1.0
21	0	-0.1818799973	1.409579992	40.79101563	101.5964584	56.22428131	1.0
22	0	-0.1818799973	1.409579992	55.93841553	104.2913132	72.09279633	1.0
23	0	-0.1818799973	1.409579992	67.37004089	104.6985931	82.40971375	1.0
24	0	-0.1818799973	1.409579992	70.59692383	104.754425	85.74645996	1.0
25	0	-0.1818799973	1.409579992	71.57860565	104.4956818	84.64691925	1.0
26	0	-0.1818799973	1.409579992	64.88440704	104.4366531	76.99491882	1.0
[LeftShoulder]
20	0.3668199778	0.02662999928	1.946700096	-8.97520256	-9.476531029	-24.62449646	1.0
21	0.3668199778	0.02662999928	1.946700096	-8.215378761	-9.899486542	-23.64638901	1.0
22	0.3668199778	0.02662999928	1.946700096	-6.698505878	-9.518950462	-25.06007385	1.0
23	0.3668199778	0.02662999928	1.946700096	-8.123703957	-9.667831421	-24.07958031	1.0
24	0.3668199778	0.02662999928	1.946700096	-9.125716209	-10.75330353	-23.04932022	1.0
25	0.3668199778	0.02662999928	1.946700096	-11.18880844	-12.47367287	-20.23613548	1.0
26	0.3668199778	0.02662999928	1.946700096	-10.68062592	-12.17237854	-19.87482452	1.0
[LeftArm]
20	1.140689969	0	0	-16.44135475	61.32694244	-79.41906738	1.0
21	1.140689969	0	0	-26.09571266	63.94608688	-92.96346283	1.0
22	1.140689969	0	0	-22.46990585	62.86165237	-91.73097229	1.0
23	1.140689969	0	0	-18.51446533	61.46999741	-86.17371368	1.0
24	1.140689969	0	0	-15.36434937	60.54628754	-83.64488983	1.0
25	1.140689969	0	0	-13.44903469	62.19806671	-78.83136749	1.0
26	1.140689969	0	0	-5.138588428	62.87436676	-68.502388	1.0
[LeftForeArm]
20	2.749800205	0	0	21.34773636	-8.433757782	-91.22709656	1.0
21	2.749800205	0	0	16.77001381	-11.08237171	-81.61113739	1.0
22	2.749800205	0	0	12.54546642	-4.757493973	-78.66108704	1.0
23	2.749800205	0	0	10.10104847	2.553938866	-80.99804688	1.0
24	2.749800205	0	0	9.320993423	3.110238314	-85.09028625	1.0
25	2.749800205	0	0	7.464416504	4.121175289	-93.89837646	1.0
26	2.749800205	0	0	8.253858566	3.254215002	-100.0930634	1.0
[LeftHand]
20	2.295179844	0	0	14.59011936	-15.75917625	-14.27968788	1.0
21	2.295179844	0	0	9.420913696	-17.06755829	-14.75074291	1.0
22	2.295179844	0	0	10.83619118	-16.5107708	-14.63238621	1.0
23	2.295179844	0	0	14.13208389	-14.1576376	-14.99967194	1.0
24	2.295179844	0	0	13.62257957	-11.80928612	-13.90695	1.0
25	2.295179844	0	0	12.53143215	-6.247235298	-11.91140842	1.0
26	2.295179844	0	0	12.74312782	-5.957326412	-11.60805893	1.0
[RightShoulder]
20	-0.3601199985	0.02662999928	1.946700096	-1.148611188	1.904266	-179.7805939	1.0
21	-0.3601199985	0.02662999928	1.946700096	-0.6693930626	1.746719837	-180.0727997	1.0
22	-0.3601199985	0.02662999928	1.946700096	0.5515412092	1.260195851	-181.1387634	1.0
23	-0.3601199985	0.02662999928	1.946700096	-1.939463496	1.737770796	-181.4292755	1.0
24	-0.3601199985	0.02662999928	1.946700096	-2.411336422	1.683759451	-181.6531982	1.0
25	-0.3601199985	0.02662999928	1.946700096	-4.114313602	1.882206321	-181.504425	1.0
26	-0.3601199985	0.02662999928	1.946700096	-3.759067774	2.117118835	-181.427124	1.0
[RightArm]
20	-1.140689969	0	0	-152.6884766	-158.8990784	15.82309723	1.0
21	-1.140689969	0	0	-152.9525146	-159.3942871	13.2673645	1.0
22	-1.140689969	0	0	-150.622879	-156.3397522	8.265681267	1.0
23	-1.140689969	0	0	-146.0941772	-150.3763123	5.765565872	1.0
24	-1.140689969	0	0	-145.0395508	-146.1562042	2.371227741	1.0
25	-1.140689969	0	0	-141.3543091	-140.9886475	-0.2172546387	1.0
26	-1.140689969	0	0	-136.725174	-136.2253723	0.2362411022	1.0
[RightForeArm]
20	-2.749800205	0	0	29.02731514	-2.1081388	-64.03418732	1.0
21	-2.749800205	0	0	25.75811958	-7.021241188	-70.2258606	1.0
22	-2.749800205	0	0	21.75432777	-12.01586151	-71.89976501	1.0
23	-2.749800205	0	0	19.12238693	-13.32755184	-72.13180542	1.0
24	-2.749800205	0	0	19.46609116	-13.10157108	-70.23535919	1.0
25	-2.749800205	0	0	20.52723885	-11.2454834	-66.95549774	1.0
26	-2.749800205	0	0	23.89713669	-5.03792572	-66.46570587	1.0
[RightHand]
20	-2.295179844	0	0	28.8439045	23.13977242	-166.035675	1.0
21	-2.295179844	0	0	39.72131729	23.07945633	-160.6578369	1.0
22	-2.295179844	0	0	42.83813095	23.48080826	-158.3338928	1.0
23	-2.295179844	0	0	42.22894287	23.99208832	-157.3624268	1.0
24	-2.295179844	0	0	42.8020401	23.36919212	-157.1998291	1.0
25	-2.295179844	0	0	42.47032547	24.18024254	-156.9461975	1.0
26	-2.295179844	0	0	36.10992432	23.06713486	-158.1038208	1.0
[LeftUpLeg]
20	0.9094099998	0	0	205.8023071	-46.41127777	-229.2229462	1.0
21	0.9094099998	0	0	189.6353912	-52.23496628	-204.1157074	1.0
22	0.9094099998	0	0	188.7656097	-52.46377563	-197.8863831	1.0
23	0.9094099998	0	0	206.4718628	-44.55420685	-217.5645142	1.0
24	0.9094099998	0	0	210.056015	-45.29400635	-224.6078796	1.0
25	0.9094099998	0	0	203.0378876	-47.41550064	-215.276413	1.0
26	0.9094099998	0	0	204.634491	-45.67311096	-218.247406	1.0
[LeftLeg]
20	0	0	-4.498080254	-62.17374802	-74.10584259	68.73402405	1.0
21	0	0	-4.498080254	-75.72557831	-60.7302742	75.47414398	1.0
22	0	0	-4.498080254	-80.94892883	-60.26914215	81.41934204	1.0
23	0	0	-4.498080254	-79.63916779	-69.11343384	80.20022583	1.0
24	0	0	-4.498080254	-86.74304962	-70.20960236	85.35070038	1.0
25	0	0	-4.498080254	-83.24085999	-69.97606659	84.02988434	1.0
26	0	0	-4.498080254	-66.06360626	-72.91371155	69.51515198	1.0
[LeftFoot]
20	0	0	-3.729400158	-38.5209465	-29.94838715	104.6367111	1.0
21	0	0	-3.729400158	-38.65870285	-28.79779625	109.5393219	1.0
22	0	0	-3.729400158	-44.38057327	-26.23837471	109.3220062	1.0
23	0	0	-3.729400158	-50.19011688	-28.04753876	107.8382492	1.0
24	0	0	-3.729400158	-50.04916382	-28.44886589	107.1382751	1.0
25	0	0	-3.729400158	-55.791008	-24.79751396	117.399292	1.0
26	0	0	-3.729400158	-57.96329117	-23.22779846	120.6591034	1.0
[LeftToeBase]
20	0	-1.364109993	-0.5911099911	-9.999999975e-007	0	0	1.0
21	0	-1.364109993	-0.5911099911	-9.999999975e-007	0	0	1.0
22	0	-1.364109993	-0.5911099911	-9.999999975e-007	0	0	1.0
23	0	-1.364109993	-0.5911099911	-9.999999975e-007	0	0	1.0
24	0	-1.364109993	-0.5911099911	-9.999999975e-007	0	0	1.0
25	0	-1.364109993	-0.5911099911	-9.999999975e-007	0	0	1.0
26	0	-1.364109993	-0.5911099911	-9.999999975e-007	0	0	1.0
[RightUpLeg]
20	-0.9094099998	0	0	-18.5892601	-66.44631958	-56.55140305	1.0
21	-0.9094099998	0	0	-19.1762352	-55.3300705	-39.5383606	1.0
22	-0.9094099998	0	0	-39.59036636	-41.16887665	-21.39968491	1.0
23	-0.9094099998	0	0	-21.31497383	-59.22582626	-55.21447372	1.0
24	-0.9094099998	0	0	-24.74891281	-56.7927742	-56.03126144	1.0
25	-0.9094099998	0	0	-27.67059898	-65.55704498	-56.18428802	1.0
26	-0.9094099998	0	0	33.47721481	-74.49263	-118.2458954	1.0
[RightLeg]
20	0	0	-4.498080254	-117.4724808	-115.4746399	167.8219147	1.0
21	0	0	-4.498080254	-141.4884796	-106.1664581	146.1688232	1.0
22	0	0	-4.498080254	-103.6964569	-111.5250778	144.162384	1.0
23	0	0	-4.498080254	-132.7840424	-136.233551	214.4654846	1.0
24	0	0	-4.498080254	-125.4816208	-126.7141571	237.5785675	1.0
25	0	0	-4.498080254	-98.41082001	-107.8439713	246.4297485	1.0
26	0	0	-4.498080254	-97.07090759	-103.5012436	252.2456055	1.0
[RightFoot]
20	0	0	-3.729400158	-32.24532318	-29.98648834	95.45272827	1.0
21	0	0	-3.729400158	-29.66342545	-21.07869911	87.36693573	1.0
22	0	0	-3.729400158	-36.91751099	-23.39034653	82.72680664	1.0
23	0	0	-3.729400158	-44.72071075	-23.3999958	92.44219208	1.0
24	0	0	-3.729400158	-45.18207169	-27.13978577	84.7468338	1.0
25	0	0	-3.729400158	-39.43933868	-31.55927658	73.17512512	1.0
26	0	0	-3.729400158	-32.05133438	-24.4838295	68.44486237	1.0
[RightToeBase]
20	0	-1.364109993	-0.5911099911	3.000000106e-006	9.999999975e-007	9.999999975e-007	1.0
21	0	-1.364109993	-0.5911099911	3.000000106e-006	9.999999975e-007	9.999999975e-007	1.0
22	0	-1.364109993	-0.5911099911	3.000000106e-006	9.999999975e-007	9.999999975e-007	1.0
23	0	-1.364109993	-0.5911099911	3.000000106e-006	9.999999975e-007	9.999999975e-007	1.0
24	0	-1.364109993	-0.5911099911	3.000000106e-006	9.999999975e-007	9.999999975e-007	1.0
25	0	-1.364109993	-0.5911099911	3.000000106e-006	9.999999975e-007	9.999999975e-007	1.0
26	0	-1.364109993	-0.5911099911	3.000000106e-006	9.999999975e-007	9.999999975e-007	1.0
[EndOfFile]
